<svg class="animated" id="freepik_stories-search-engines" xmlns="http://www.w3.org/2000/svg" viewBox="0 0 500 500" version="1.1" xmlns:xlink="http://www.w3.org/1999/xlink" xmlns:svgjs="http://svgjs.com/svgjs"><style>svg#freepik_stories-search-engines:not(.animated) .animable {opacity: 0;}svg#freepik_stories-search-engines.animated #freepik--Graphics--inject-19 {animation: 1.5s Infinite  linear floating;animation-delay: 0s;}svg#freepik_stories-search-engines.animated #freepik--Character--inject-19 {animation: 1.5s Infinite  linear floating;animation-delay: 0s;}            @keyframes floating {                0% {                    opacity: 1;                    transform: translateY(0px);                }                50% {                    transform: translateY(-10px);                }                100% {                    opacity: 1;                    transform: translateY(0px);                }            }        </style><g id="freepik--background-complete--inject-19" class="animable" style="transform-origin: 250px 224.695px;"><rect y="382.4" width="500" height="0.25" style="fill: rgb(224, 224, 224); transform-origin: 250px 382.525px;" id="elbx0rs7a0ype" class="animable"></rect><rect x="376.32" y="390" width="16.86" height="0.25" style="fill: rgb(224, 224, 224); transform-origin: 384.75px 390.125px;" id="el10v34dpipwx8" class="animable"></rect><rect x="404" y="389.88" width="44.56" height="0.25" style="fill: rgb(224, 224, 224); transform-origin: 426.28px 390.005px;" id="elhv2btk0y97v" class="animable"></rect><rect x="265.26" y="391.56" width="55.47" height="0.25" style="fill: rgb(224, 224, 224); transform-origin: 292.995px 391.685px;" id="elplj46t7mw4" class="animable"></rect><rect x="238.78" y="391.56" width="20.72" height="0.25" style="fill: rgb(224, 224, 224); transform-origin: 249.14px 391.685px;" id="el6wj7a5nk0zd" class="animable"></rect><rect x="142.46" y="389.63" width="9.1" height="0.25" style="fill: rgb(224, 224, 224); transform-origin: 147.01px 389.755px;" id="el17odctjjt7k" class="animable"></rect><rect x="157.11" y="389.63" width="15.04" height="0.25" style="fill: rgb(224, 224, 224); transform-origin: 164.63px 389.755px;" id="elqv9ol8a58vh" class="animable"></rect><rect x="66.89" y="394.14" width="66.56" height="0.25" style="fill: rgb(224, 224, 224); transform-origin: 100.17px 394.265px;" id="el6cln2nbi6oj" class="animable"></rect><path d="M237,337.8H43.91a5.71,5.71,0,0,1-5.7-5.71V60.66A5.71,5.71,0,0,1,43.91,55H237a5.71,5.71,0,0,1,5.71,5.71V332.09A5.71,5.71,0,0,1,237,337.8ZM43.91,55.2a5.46,5.46,0,0,0-5.45,5.46V332.09a5.46,5.46,0,0,0,5.45,5.46H237a5.47,5.47,0,0,0,5.46-5.46V60.66A5.47,5.47,0,0,0,237,55.2Z" style="fill: rgb(224, 224, 224); transform-origin: 140.46px 196.4px;" id="ely6op05vnat" class="animable"></path><path d="M453.31,337.8H260.21a5.72,5.72,0,0,1-5.71-5.71V60.66A5.72,5.72,0,0,1,260.21,55h193.1A5.71,5.71,0,0,1,459,60.66V332.09A5.71,5.71,0,0,1,453.31,337.8ZM260.21,55.2a5.47,5.47,0,0,0-5.46,5.46V332.09a5.47,5.47,0,0,0,5.46,5.46h193.1a5.47,5.47,0,0,0,5.46-5.46V60.66a5.47,5.47,0,0,0-5.46-5.46Z" style="fill: rgb(224, 224, 224); transform-origin: 356.75px 196.4px;" id="elyxj2zwmkide" class="animable"></path><rect x="270.43" y="260.54" width="47.36" height="121.86" style="fill: rgb(224, 224, 224); transform-origin: 294.11px 321.47px;" id="elc508nolgvn" class="animable"></rect><polygon points="308.79 382.4 317.79 382.4 317.79 356.81 299.36 356.81 308.79 382.4" style="fill: rgb(240, 240, 240); transform-origin: 308.575px 369.605px;" id="els2ptod0ucsa" class="animable"></polygon><rect x="93.43" y="260.54" width="47.36" height="121.86" style="fill: rgb(224, 224, 224); transform-origin: 117.11px 321.47px;" id="el98ww6wz9ie" class="animable"></rect><rect x="132.94" y="260.54" width="184.84" height="106.16" style="fill: rgb(240, 240, 240); transform-origin: 225.36px 313.62px;" id="elc2edxtsmjm" class="animable"></rect><g id="el7puikcdcpl4"><rect x="236.37" y="260.27" width="66.46" height="82.43" style="fill: rgb(224, 224, 224); transform-origin: 269.6px 301.485px; transform: rotate(-90deg);" class="animable" id="el618gq18hpcy"></rect></g><g id="ele7l9t80qxr8"><rect x="147.9" y="260.27" width="66.46" height="82.43" style="fill: rgb(224, 224, 224); transform-origin: 181.13px 301.485px; transform: rotate(-90deg);" class="animable" id="elkm2hvbcekxe"></rect></g><g id="el1681zorlheki"><rect x="267.15" y="313.15" width="4.89" height="82.43" style="fill: rgb(224, 224, 224); transform-origin: 269.595px 354.365px; transform: rotate(90deg);" class="animable" id="el0tlit8kw4ebh"></rect></g><g id="elsj7gmnayvtb"><rect x="178.69" y="313.15" width="4.89" height="82.43" style="fill: rgb(224, 224, 224); transform-origin: 181.135px 354.365px; transform: rotate(90deg);" class="animable" id="eldhucxedirja"></rect></g><g id="elifd9wzj4lqg"><rect x="267.15" y="303.71" width="4.89" height="82.43" style="fill: rgb(224, 224, 224); transform-origin: 269.595px 344.925px; transform: rotate(90deg);" class="animable" id="elv0am0wbp9us"></rect></g><g id="elqdx443vo3xh"><rect x="178.69" y="303.71" width="4.89" height="82.43" style="fill: rgb(224, 224, 224); transform-origin: 181.135px 344.925px; transform: rotate(90deg);" class="animable" id="el2w1ksw37o87"></rect></g><path d="M189.29,275.41H173a25.81,25.81,0,0,1-18.73-8.05H208A25.79,25.79,0,0,1,189.29,275.41Z" style="fill: rgb(240, 240, 240); transform-origin: 181.135px 271.385px;" id="elhf8g3knvn6" class="animable"></path><path d="M278.58,275.41h-16.3a25.79,25.79,0,0,1-18.73-8.05h53.76A25.79,25.79,0,0,1,278.58,275.41Z" style="fill: rgb(240, 240, 240); transform-origin: 270.43px 271.385px;" id="el55vyp2lxj8s" class="animable"></path><polygon points="141.94 382.4 132.94 382.4 132.94 356.81 151.37 356.81 141.94 382.4" style="fill: rgb(240, 240, 240); transform-origin: 142.155px 369.605px;" id="el3rebyx09i0i" class="animable"></polygon><rect x="68.35" y="73.99" width="248.42" height="141.9" style="fill: rgb(224, 224, 224); transform-origin: 192.56px 144.94px;" id="elomksndaqjbq" class="animable"></rect><path d="M330.51,69.61H60a1.27,1.27,0,0,0-1.27,1.27h0A1.27,1.27,0,0,0,60,72.16H330.51a1.27,1.27,0,0,0,1.27-1.28h0A1.27,1.27,0,0,0,330.51,69.61Z" style="fill: rgb(224, 224, 224); transform-origin: 195.255px 70.885px;" id="elry43cryzjy" class="animable"></path><rect x="70.89" y="73.99" width="251.32" height="141.9" style="fill: rgb(230, 230, 230); transform-origin: 196.55px 144.94px;" id="el4hrfcecasac" class="animable"></rect><rect x="68.35" y="215.89" width="248.42" height="10.11" style="fill: rgb(224, 224, 224); transform-origin: 192.56px 220.945px;" id="elq2rop7u3epf" class="animable"></rect><rect x="79.95" y="215.89" width="251.32" height="10.11" style="fill: rgb(230, 230, 230); transform-origin: 205.61px 220.945px;" id="el1c8jg2p6dq2" class="animable"></rect><g id="elehxi380hj9c"><rect x="133.22" y="26.9" width="126.66" height="236.08" style="fill: rgb(245, 245, 245); transform-origin: 196.55px 144.94px; transform: rotate(90deg);" class="animable" id="elxplyed5d3np"></rect></g><polygon points="195.34 208.27 240.05 81.61 261.15 81.61 216.44 208.27 195.34 208.27" style="fill: rgb(250, 250, 250); transform-origin: 228.245px 144.94px;" id="ell72fzpgtduh" class="animable"></polygon><polygon points="220.98 208.27 265.69 81.61 273.91 81.61 229.21 208.27 220.98 208.27" style="fill: rgb(250, 250, 250); transform-origin: 247.445px 144.94px;" id="el2ef43itj3qj" class="animable"></polygon><g id="elu7z86xmao6b"><rect x="250.77" y="144.46" width="126.66" height="0.97" style="fill: rgb(224, 224, 224); transform-origin: 314.1px 144.945px; transform: rotate(90deg);" class="animable" id="eltfk7f9iw03j"></rect></g><rect x="65.48" y="67.33" width="13.11" height="122.22" style="fill: rgb(235, 235, 235); transform-origin: 72.035px 128.44px;" id="elaqxwigkz92n" class="animable"></rect><rect x="73.49" y="67.33" width="10.21" height="122.22" style="fill: rgb(224, 224, 224); transform-origin: 78.595px 128.44px;" id="elgjnjo61cdes" class="animable"></rect><rect x="78.59" y="67.33" width="13.11" height="122.22" style="fill: rgb(235, 235, 235); transform-origin: 85.145px 128.44px;" id="el40y93x55x8a" class="animable"></rect><rect x="86.6" y="67.33" width="10.21" height="122.22" style="fill: rgb(224, 224, 224); transform-origin: 91.705px 128.44px;" id="elvmuddyr32om" class="animable"></rect><rect x="91.7" y="67.33" width="13.11" height="122.22" style="fill: rgb(235, 235, 235); transform-origin: 98.255px 128.44px;" id="elvtlndqjmmgm" class="animable"></rect><rect x="302.15" y="67.33" width="7.55" height="122.22" style="fill: rgb(235, 235, 235); transform-origin: 305.925px 128.44px;" id="el2kyfafsw5sn" class="animable"></rect><rect x="306.77" y="67.33" width="5.89" height="122.22" style="fill: rgb(224, 224, 224); transform-origin: 309.715px 128.44px;" id="elm3vf19dbtl" class="animable"></rect><rect x="309.71" y="67.33" width="7.55" height="122.22" style="fill: rgb(235, 235, 235); transform-origin: 313.485px 128.44px;" id="elo62pn4ovvid" class="animable"></rect><rect x="314.32" y="67.33" width="5.89" height="122.22" style="fill: rgb(224, 224, 224); transform-origin: 317.265px 128.44px;" id="elqmqkiunoto" class="animable"></rect><rect x="317.26" y="67.33" width="7.55" height="122.22" style="fill: rgb(235, 235, 235); transform-origin: 321.035px 128.44px;" id="elvuno3c0ni" class="animable"></rect><rect x="376.77" y="120.35" width="16.76" height="45.73" style="fill: rgb(230, 230, 230); transform-origin: 385.15px 143.215px;" id="elcr68sh64xts" class="animable"></rect><polygon points="370.4 173.71 366.52 184.28 370.4 184.28 394.13 173.71 370.4 173.71" style="fill: rgb(240, 240, 240); transform-origin: 380.325px 178.995px;" id="elk44c3zb5d8" class="animable"></polygon><polygon points="366.52 173.71 366.52 184.28 390.26 173.71 366.52 173.71" style="fill: rgb(224, 224, 224); transform-origin: 378.39px 178.995px;" id="elixe1o7bt7g" class="animable"></polygon><polygon points="410.99 173.71 407.11 184.28 410.99 184.28 434.72 173.71 410.99 173.71" style="fill: rgb(240, 240, 240); transform-origin: 420.915px 178.995px;" id="elfeswul42tkm" class="animable"></polygon><polygon points="407.11 173.71 407.11 184.28 430.85 173.71 407.11 173.71" style="fill: rgb(224, 224, 224); transform-origin: 418.98px 178.995px;" id="eliddmu6v4fpa" class="animable"></polygon><g id="el30g5iniwsch"><rect x="349.1" y="166.15" width="25.81" height="8.05" style="fill: rgb(224, 224, 224); transform-origin: 362.005px 170.175px; transform: rotate(180deg);" class="animable" id="elkrk9o3oxd4l"></rect></g><rect x="374.91" y="166.15" width="73.65" height="8.05" style="fill: rgb(240, 240, 240); transform-origin: 411.735px 170.175px;" id="elsgioub2lc0h" class="animable"></rect><polygon points="421.45 166.08 380.66 166.08 375.61 110.67 416.4 110.67 421.45 166.08" style="fill: rgb(224, 224, 224); transform-origin: 398.53px 138.375px;" id="el8ho1kb4vhbj" class="animable"></polygon><polygon points="423.56 166.08 382.77 166.08 377.73 110.67 418.52 110.67 423.56 166.08" style="fill: rgb(240, 240, 240); transform-origin: 400.645px 138.375px;" id="elugr2i0xbkbl" class="animable"></polygon><polygon points="388.35 159.95 384.42 116.8 412.94 116.8 416.87 159.95 388.35 159.95" style="fill: rgb(250, 250, 250); transform-origin: 400.645px 138.375px;" id="eld5ge0a02msi" class="animable"></polygon><path d="M157.41,242.75s-17.59-30.31,6.81-54.44c0,0,6.37,4.15,6.27,9.73s-6.82,7-5.37,11.64,7.79,9.23,3.62,13.08.67,7.27.39,12S157.41,242.75,157.41,242.75Z" style="fill: rgb(224, 224, 224); transform-origin: 160.884px 215.53px;" id="eluwa0q0n07m" class="animable"></path><path d="M158.74,245.52s7.13-34.31-23.63-49.52c0,0-4.73,5.95-2.88,11.21s8.67,4.49,8.77,9.36-4.48,11.21.68,13.55,1.66,7.12,3.42,11.5S158.74,245.52,158.74,245.52Z" style="fill: rgb(224, 224, 224); transform-origin: 145.628px 220.768px;" id="elenpir3zts4q" class="animable"></path><path d="M131.8,237.92s.58,22.62,23,22.62,23-22.62,23-22.62Z" style="fill: rgb(240, 240, 240); transform-origin: 154.8px 249.23px;" id="elmb9x7f1fa2l" class="animable"></path><path d="M396.35,382.4h2.29l6.52-32.16,1.15-5.63,7.11-35h27.29L455.5,382.4h2.29l-15.07-74.18a1.12,1.12,0,0,0-1.1-.89H412.51a1.1,1.1,0,0,0-1.09.89L405.17,339,404,344.63Z" style="fill: rgb(235, 235, 235); transform-origin: 427.07px 344.865px;" id="eld9kasti85pt" class="animable"></path><path d="M352.54,382.4h2.29l14.79-72.83h27.29L404,344.63l1.14,5.61,6.53,32.16H414l-7.67-37.79L405.17,339l-6.25-30.78a1.12,1.12,0,0,0-1.1-.89H368.71a1.12,1.12,0,0,0-1.1.89Z" style="fill: rgb(235, 235, 235); transform-origin: 383.27px 344.865px;" id="elt3k3nn8iho7" class="animable"></path><path d="M419.81,308.45H369.67a17.59,17.59,0,0,1-17.58-17.23L350.22,215A12.81,12.81,0,0,1,363,202h31.43a12.81,12.81,0,0,1,12.73,11.36Z" style="fill: rgb(230, 230, 230); transform-origin: 385.014px 255.225px;" id="elhte2bp47sak" class="animable"></path><path d="M392.46,298.84h49.07a6.87,6.87,0,0,1,6.87,6.87v.24a2.5,2.5,0,0,1-2.5,2.5H392.46a0,0,0,0,1,0,0v-9.61A0,0,0,0,1,392.46,298.84Z" style="fill: rgb(230, 230, 230); transform-origin: 420.43px 303.645px;" id="eltkm4urap4as" class="animable"></path></g><g id="freepik--Shadow--inject-19" class="animable" style="transform-origin: 250px 416.24px;"><ellipse cx="250" cy="416.24" rx="193.89" ry="11.32" style="fill: rgb(245, 245, 245); transform-origin: 250px 416.24px;" id="elpbgwc8vun1" class="animable"></ellipse></g><g id="freepik--Graphics--inject-19" class="animable" style="transform-origin: 243.135px 177.65px;"><path d="M186.55,128.28v0s0,0,0,0a33.71,33.71,0,0,0-.45-5.56,35,35,0,0,0-34.17-29.3h-.3a34.83,34.83,0,0,0-28.26,14.5c-.53.73-1,1.48-1.48,2.23a.86.86,0,0,0-.1.16,34.66,34.66,0,0,0-5,18v.07A34.88,34.88,0,0,0,180,148.63c.52-.73,1-1.47,1.47-2.23a.86.86,0,0,0,.1-.16A34.45,34.45,0,0,0,186.55,128.28Zm-68.27-.79a33,33,0,0,1,4.63-16.2h10.91a55.08,55.08,0,0,0-2.59,16.2Zm17.07-16.2h15.56v16.2H132.73A53.38,53.38,0,0,1,135.35,111.29Zm17.06-1.5V94.87a12.2,12.2,0,0,1,6,2.23c3.71,2.54,6.82,7,9,12.69Zm15.54,1.5a51.81,51.81,0,0,1,2.4,11.55c.15,1.56.22,3.11.24,4.65H152.41v-16.2Zm-19.24-16a10.57,10.57,0,0,1,2.2-.38v14.91h-15C138.71,102.28,143.25,96.8,148.71,95.26Zm2.2,33.73v16.2H135.38A51.25,51.25,0,0,1,133,133.64q-.21-2.34-.24-4.65Zm0,17.7v14.92a12.23,12.23,0,0,1-6-2.23c-3.7-2.54-6.81-7-9-12.69Zm3.7,14.53a10.45,10.45,0,0,1-2.2.38V146.69h15C164.61,154.2,160.07,159.69,154.61,161.22Zm-2.2-16V129h18.18a53.08,53.08,0,0,1-2.62,16.2ZM172.09,129h13a33.12,33.12,0,0,1-4.63,16.2H169.5A55.08,55.08,0,0,0,172.09,129Zm13-1.5h-13c0-1.58-.1-3.18-.25-4.79a52.89,52.89,0,0,0-2.29-11.41h10.89a33.41,33.41,0,0,1,4.19,11.6A35.91,35.91,0,0,1,185.05,127.49Zm-13.87-26.33a33.58,33.58,0,0,1,8.32,8.63H169c-2.24-6.19-5.61-11.09-9.74-13.93l-.32-.21A33.44,33.44,0,0,1,171.18,101.16Zm-26.87-5.49c-4.21,2.77-7.67,7.81-10,14.12H123.85l.73-1.07A33.19,33.19,0,0,1,144.31,95.67Zm-26,33.32h12.95c0,1.58.1,3.18.25,4.79a53.5,53.5,0,0,0,2.29,11.41H122.89a33.21,33.21,0,0,1-4.19-11.6A32.5,32.5,0,0,1,118.28,129Zm5.54,17.7h10.46c2.24,6.19,5.61,11.09,9.74,13.93l.33.21a33.62,33.62,0,0,1-20.53-14.14ZM159,160.81c4.2-2.76,7.66-7.81,10-14.12h10.48c-.24.36-.48.72-.73,1.07A33.15,33.15,0,0,1,159,160.81Z" style="fill: #B2E11F; transform-origin: 151.67px 128.291px;" id="el6fx8v979in5" class="animable"></path><g id="elexonqn0xwij"><path d="M186.55,128.28v0s0,0,0,0a33.71,33.71,0,0,0-.45-5.56,35,35,0,0,0-34.17-29.3h-.3a34.83,34.83,0,0,0-28.26,14.5c-.53.73-1,1.48-1.48,2.23a.86.86,0,0,0-.1.16,34.66,34.66,0,0,0-5,18v.07A34.88,34.88,0,0,0,180,148.63c.52-.73,1-1.47,1.47-2.23a.86.86,0,0,0,.1-.16A34.45,34.45,0,0,0,186.55,128.28Zm-68.27-.79a33,33,0,0,1,4.63-16.2h10.91a55.08,55.08,0,0,0-2.59,16.2Zm17.07-16.2h15.56v16.2H132.73A53.38,53.38,0,0,1,135.35,111.29Zm17.06-1.5V94.87a12.2,12.2,0,0,1,6,2.23c3.71,2.54,6.82,7,9,12.69Zm15.54,1.5a51.81,51.81,0,0,1,2.4,11.55c.15,1.56.22,3.11.24,4.65H152.41v-16.2Zm-19.24-16a10.57,10.57,0,0,1,2.2-.38v14.91h-15C138.71,102.28,143.25,96.8,148.71,95.26Zm2.2,33.73v16.2H135.38A51.25,51.25,0,0,1,133,133.64q-.21-2.34-.24-4.65Zm0,17.7v14.92a12.23,12.23,0,0,1-6-2.23c-3.7-2.54-6.81-7-9-12.69Zm3.7,14.53a10.45,10.45,0,0,1-2.2.38V146.69h15C164.61,154.2,160.07,159.69,154.61,161.22Zm-2.2-16V129h18.18a53.08,53.08,0,0,1-2.62,16.2ZM172.09,129h13a33.12,33.12,0,0,1-4.63,16.2H169.5A55.08,55.08,0,0,0,172.09,129Zm13-1.5h-13c0-1.58-.1-3.18-.25-4.79a52.89,52.89,0,0,0-2.29-11.41h10.89a33.41,33.41,0,0,1,4.19,11.6A35.91,35.91,0,0,1,185.05,127.49Zm-13.87-26.33a33.58,33.58,0,0,1,8.32,8.63H169c-2.24-6.19-5.61-11.09-9.74-13.93l-.32-.21A33.44,33.44,0,0,1,171.18,101.16Zm-26.87-5.49c-4.21,2.77-7.67,7.81-10,14.12H123.85l.73-1.07A33.19,33.19,0,0,1,144.31,95.67Zm-26,33.32h12.95c0,1.58.1,3.18.25,4.79a53.5,53.5,0,0,0,2.29,11.41H122.89a33.21,33.21,0,0,1-4.19-11.6A32.5,32.5,0,0,1,118.28,129Zm5.54,17.7h10.46c2.24,6.19,5.61,11.09,9.74,13.93l.33.21a33.62,33.62,0,0,1-20.53-14.14ZM159,160.81c4.2-2.76,7.66-7.81,10-14.12h10.48c-.24.36-.48.72-.73,1.07A33.15,33.15,0,0,1,159,160.81Z" style="fill: rgb(250, 250, 250); opacity: 0.8; transform-origin: 151.67px 128.291px;" class="animable" id="elgtcz443yei"></path></g><rect x="99.89" y="144.9" width="314.4" height="76.18" style="fill: #B2E11F; transform-origin: 257.09px 182.99px;" id="el3p6k5dnwxlw" class="animable"></rect><g id="el3iddlp1484m"><rect x="99.89" y="144.9" width="314.4" height="76.18" style="fill: rgb(250, 250, 250); opacity: 0.6; transform-origin: 257.09px 182.99px;" class="animable" id="elmuqn2sqftbq"></rect></g><rect x="92.8" y="151.99" width="314.4" height="76.18" style="fill: #B2E11F; transform-origin: 250px 190.08px;" id="elv448ol5sixk" class="animable"></rect><g id="elystvjbksabm"><rect x="92.8" y="151.99" width="314.4" height="76.18" style="opacity: 0.3; transform-origin: 250px 190.08px;" class="animable" id="elekpiirk7jlf"></rect></g><rect x="85.71" y="159.08" width="314.4" height="76.18" style="fill: #B2E11F; transform-origin: 242.91px 197.17px;" id="el44l98pusjzc" class="animable"></rect><g id="elsslw9q09r2"><rect x="85.71" y="159.08" width="314.4" height="76.18" style="fill: rgb(250, 250, 250); opacity: 0.1; transform-origin: 242.91px 197.17px;" class="animable" id="elml6mj7fvb9o"></rect></g><g id="elc6s9w2due25"><rect x="219.83" y="54.97" width="46.18" height="284.4" style="fill: #B2E11F; transform-origin: 242.92px 197.17px; transform: rotate(90deg);" class="animable" id="el59mhygepttq"></rect></g><g id="elja0wowas08i"><rect x="219.83" y="54.97" width="46.18" height="284.4" style="fill: rgb(250, 250, 250); opacity: 0.9; transform-origin: 242.92px 197.17px; transform: rotate(90deg);" class="animable" id="el7tmst6vxr58"></rect></g><g id="elxtlatpi199"><rect x="315.01" y="196.33" width="46.18" height="1.67" style="fill: #B2E11F; transform-origin: 338.1px 197.165px; transform: rotate(-90deg);" class="animable" id="el18eqc1lh98ii"></rect></g><g id="elfdfjdsaq1qg"><rect x="315.01" y="196.33" width="46.18" height="1.67" style="fill: rgb(250, 250, 250); opacity: 0.6; transform-origin: 338.1px 197.165px; transform: rotate(-90deg);" class="animable" id="el1p5lfkx8f2l"></rect></g><g id="elghr7houzps4"><rect x="91.91" y="196.33" width="33.44" height="1.67" style="fill: #B2E11F; transform-origin: 108.63px 197.165px; transform: rotate(-90deg);" class="animable" id="elk33vp0qzbd"></rect></g><g id="elindx3uyvhsl"><rect x="91.91" y="196.33" width="33.44" height="1.67" style="fill: rgb(250, 250, 250); opacity: 0.6; transform-origin: 108.63px 197.165px; transform: rotate(-90deg);" class="animable" id="elz4gped8z4wt"></rect></g><path d="M360.43,203a7.38,7.38,0,1,1,5.22-12.6h0a7.38,7.38,0,0,1-5.22,12.6Zm0-12.75a5.38,5.38,0,1,0,3.8,1.57h0A5.33,5.33,0,0,0,360.43,190.2Z" style="fill: #B2E11F; transform-origin: 360.433px 195.62px;" id="elp8nm9djt8w" class="animable"></path><path d="M370,206.14a1,1,0,0,1-.71-.3l-5.05-5.05a1,1,0,1,1,1.41-1.41l5.05,5.05a1,1,0,0,1,0,1.41A1,1,0,0,1,370,206.14Z" style="fill: #B2E11F; transform-origin: 367.441px 202.585px;" id="el972wucg777o" class="animable"></path><g id="elyzooq5zww8"><g style="opacity: 0.6; transform-origin: 362.022px 197.19px;" class="animable" id="elqsigevapokj"><path d="M360.43,203a7.38,7.38,0,1,1,5.22-12.6h0a7.38,7.38,0,0,1-5.22,12.6Zm0-12.75a5.38,5.38,0,1,0,3.8,1.57h0A5.33,5.33,0,0,0,360.43,190.2Z" style="fill: rgb(250, 250, 250); transform-origin: 360.433px 195.62px;" id="elf3jbgu4n95b" class="animable"></path><path d="M370,206.14a1,1,0,0,1-.71-.3l-5.05-5.05a1,1,0,1,1,1.41-1.41l5.05,5.05a1,1,0,0,1,0,1.41A1,1,0,0,1,370,206.14Z" style="fill: rgb(250, 250, 250); transform-origin: 367.441px 202.585px;" id="eleihn4o6ezfc" class="animable"></path></g></g><rect x="261.15" y="98.85" width="31.44" height="0.78" style="fill: #B2E11F; transform-origin: 276.87px 99.24px;" id="ellp3vvuvu22" class="animable"></rect><rect x="261.15" y="102.16" width="31.44" height="0.78" style="fill: #B2E11F; transform-origin: 276.87px 102.55px;" id="elx129i723oum" class="animable"></rect><rect x="261.15" y="105.48" width="31.44" height="0.78" style="fill: #B2E11F; transform-origin: 276.87px 105.87px;" id="eleumppdkjtq" class="animable"></rect><rect x="261.15" y="108.79" width="31.44" height="0.78" style="fill: #B2E11F; transform-origin: 276.87px 109.18px;" id="el8ijgtus6sr6" class="animable"></rect><rect x="261.15" y="112.1" width="31.44" height="0.78" style="fill: #B2E11F; transform-origin: 276.87px 112.49px;" id="elqy05nzd5cca" class="animable"></rect><rect x="261.15" y="115.42" width="20.5" height="0.78" style="fill: #B2E11F; transform-origin: 271.4px 115.81px;" id="ely6c9ieu9r7" class="animable"></rect><g id="el27qhsz7gxpk"><g style="opacity: 0.5; transform-origin: 276.87px 107.525px;" class="animable" id="elzdqkt1sznms"><rect x="261.15" y="98.85" width="31.44" height="0.78" style="fill: rgb(250, 250, 250); transform-origin: 276.87px 99.24px;" id="elftir70mr4na" class="animable"></rect><rect x="261.15" y="102.16" width="31.44" height="0.78" style="fill: rgb(250, 250, 250); transform-origin: 276.87px 102.55px;" id="el035a3k6rz4hk" class="animable"></rect><rect x="261.15" y="105.48" width="31.44" height="0.78" style="fill: rgb(250, 250, 250); transform-origin: 276.87px 105.87px;" id="elfdudsj4g9od" class="animable"></rect><rect x="261.15" y="108.79" width="31.44" height="0.78" style="fill: rgb(250, 250, 250); transform-origin: 276.87px 109.18px;" id="el0ic1oppo7mxe" class="animable"></rect><rect x="261.15" y="112.1" width="31.44" height="0.78" style="fill: rgb(250, 250, 250); transform-origin: 276.87px 112.49px;" id="el83xslpyju4i" class="animable"></rect><rect x="261.15" y="115.42" width="20.5" height="0.78" style="fill: rgb(250, 250, 250); transform-origin: 271.4px 115.81px;" id="el48ccb8g5j95" class="animable"></rect></g></g><rect x="69.85" y="241.84" width="33.5" height="0.5" style="fill: #B2E11F; transform-origin: 86.6px 242.09px;" id="elsxnq7euguob" class="animable"></rect><rect x="69.85" y="243.96" width="33.5" height="0.5" style="fill: #B2E11F; transform-origin: 86.6px 244.21px;" id="eliiwj3euyt" class="animable"></rect><rect x="69.85" y="246.08" width="33.5" height="0.5" style="fill: #B2E11F; transform-origin: 86.6px 246.33px;" id="elupmy228fns" class="animable"></rect><rect x="69.85" y="248.2" width="33.5" height="0.5" style="fill: #B2E11F; transform-origin: 86.6px 248.45px;" id="el8ucs8999et2" class="animable"></rect><rect x="69.85" y="250.32" width="33.5" height="0.5" style="fill: #B2E11F; transform-origin: 86.6px 250.57px;" id="elv8y4m44l58" class="animable"></rect><rect x="69.85" y="252.45" width="21.06" height="0.5" style="fill: #B2E11F; transform-origin: 80.38px 252.7px;" id="elaxqwhiwdpc4" class="animable"></rect><g id="eluzffps54rn8"><g style="opacity: 0.4; transform-origin: 86.6px 247.395px;" class="animable" id="elexlf96c1t0a"><rect x="69.85" y="241.84" width="33.5" height="0.5" style="fill: rgb(250, 250, 250); transform-origin: 86.6px 242.09px;" id="eluzj4v4vyqs" class="animable"></rect><rect x="69.85" y="243.96" width="33.5" height="0.5" style="fill: rgb(250, 250, 250); transform-origin: 86.6px 244.21px;" id="el3i3gc5cy44" class="animable"></rect><rect x="69.85" y="246.08" width="33.5" height="0.5" style="fill: rgb(250, 250, 250); transform-origin: 86.6px 246.33px;" id="el9f4ely8apso" class="animable"></rect><rect x="69.85" y="248.2" width="33.5" height="0.5" style="fill: rgb(250, 250, 250); transform-origin: 86.6px 248.45px;" id="el320a2al4i11" class="animable"></rect><rect x="69.85" y="250.32" width="33.5" height="0.5" style="fill: rgb(250, 250, 250); transform-origin: 86.6px 250.57px;" id="elkzkolhaxxqi" class="animable"></rect><rect x="69.85" y="252.45" width="21.06" height="0.5" style="fill: rgb(250, 250, 250); transform-origin: 80.38px 252.7px;" id="el61gmlpyy7kk" class="animable"></rect></g></g><path d="M213.45,103.76h0a6.32,6.32,0,0,0-6.32,6.32v20.85a6.32,6.32,0,0,0,6.32,6.32h0a6.32,6.32,0,0,0,6.32-6.32V110.08A6.32,6.32,0,0,0,213.45,103.76Z" style="fill: #B2E11F; transform-origin: 213.45px 120.505px;" id="elhp69iyz6sqn" class="animable"></path><g id="el4d6zfiywtw3"><path d="M213.45,103.76h0a6.32,6.32,0,0,0-6.32,6.32v20.85a6.32,6.32,0,0,0,6.32,6.32h0a6.32,6.32,0,0,0,6.32-6.32V110.08A6.32,6.32,0,0,0,213.45,103.76Z" style="fill: rgb(250, 250, 250); opacity: 0.2; transform-origin: 213.45px 120.505px;" class="animable" id="elcclc117blx9"></path></g><path d="M229.29,91.33h0A6.32,6.32,0,0,0,223,97.65v33.28a6.32,6.32,0,0,0,6.32,6.32h0a6.32,6.32,0,0,0,6.32-6.32V97.65A6.32,6.32,0,0,0,229.29,91.33Z" style="fill: #B2E11F; transform-origin: 229.32px 114.29px;" id="el4aroq6r84j2" class="animable"></path><g id="elhmgkwmvo9to"><path d="M229.29,91.33h0A6.32,6.32,0,0,0,223,97.65v33.28a6.32,6.32,0,0,0,6.32,6.32h0a6.32,6.32,0,0,0,6.32-6.32V97.65A6.32,6.32,0,0,0,229.29,91.33Z" style="opacity: 0.3; transform-origin: 229.32px 114.29px;" class="animable" id="elkyxdmp5k8qs"></path></g><path d="M245.12,116.19h0a6.32,6.32,0,0,0-6.32,6.32v8.42a6.32,6.32,0,0,0,6.32,6.32h0a6.32,6.32,0,0,0,6.33-6.32v-8.42A6.32,6.32,0,0,0,245.12,116.19Z" style="fill: #B2E11F; transform-origin: 245.125px 126.72px;" id="el9p9gyi46tl" class="animable"></path><g id="elrulzy0g5pt"><path d="M245.12,116.19h0a6.32,6.32,0,0,0-6.32,6.32v8.42a6.32,6.32,0,0,0,6.32,6.32h0a6.32,6.32,0,0,0,6.33-6.32v-8.42A6.32,6.32,0,0,0,245.12,116.19Z" style="fill: rgb(250, 250, 250); opacity: 0.6; transform-origin: 245.125px 126.72px;" class="animable" id="eliutzq1kq1l"></path></g><polyline points="378.61 259.13 404.16 259.13 360.54 213.89 360.54 213.89 378.61 259.13" style="fill: #B2E11F; transform-origin: 382.35px 236.51px;" id="elf2hdqtuz93o" class="animable"></polyline><g id="el6qs8zjtzuao"><g style="opacity: 0.1; transform-origin: 382.35px 236.51px;" class="animable" id="elizkmba63kxo"><polyline points="378.61 259.13 404.16 259.13 360.54 213.89 360.54 213.89 378.61 259.13" id="elu42wabkkls" class="animable" style="transform-origin: 382.35px 236.51px;"></polyline></g></g><polygon points="354.05 235.25 360.54 213.89 364.22 235.25 354.05 235.25" style="fill: #B2E11F; mix-blend-mode: multiply; transform-origin: 359.135px 224.57px;" id="elaszqpcdb0e" class="animable"></polygon><polygon points="360.54 213.89 360.54 277.19 365.06 272.68 378.61 259.13 360.54 213.89" style="fill: #B2E11F; transform-origin: 369.575px 245.54px;" id="elvli47scw8rj" class="animable"></polygon><g id="elw8pjp6e831r"><polygon points="360.54 213.89 360.54 277.19 365.06 272.68 378.61 259.13 360.54 213.89" style="fill: rgb(250, 250, 250); opacity: 0.3; transform-origin: 369.575px 245.54px;" class="animable" id="elrlx6eb7zuh"></polygon></g><path d="M405.72,78.11h-56A10.76,10.76,0,0,0,339,88.82v28.92a10.76,10.76,0,0,0,10.71,10.71h41.09l-.3,10.11,10.37-10.11h4.83a10.76,10.76,0,0,0,10.72-10.71V88.82A10.76,10.76,0,0,0,405.72,78.11ZM348.46,90.43a3,3,0,0,1,3-3h12.89a3,3,0,0,1,0,6H351.45A3,3,0,0,1,348.46,90.43Zm54.08,28H380.26a3,3,0,1,1,0-5.91h22.28a3,3,0,1,1,0,5.91Zm0-12.51H354.45a3,3,0,1,1,0-5.91h48.09a3,3,0,1,1,0,5.91Zm0-12.51H374.07a3,3,0,0,1,0-6h28.47a3,3,0,0,1,0,6Z" style="fill: #B2E11F; transform-origin: 377.71px 108.335px;" id="el1hxp1v25fb9" class="animable"></path></g><g id="freepik--Character--inject-19" class="animable" style="transform-origin: 220.946px 272.307px;"><path d="M318.14,169.78A53.7,53.7,0,0,0,307.39,152H227.88a53.7,53.7,0,0,0-10.75,17.78l11,54.76a53.73,53.73,0,0,0,90-54.76Z" style="fill: #B2E11F; transform-origin: 269.241px 196.919px;" id="eljhysrhr3brp" class="animable"></path><g id="elzkvtsvv2e"><path d="M318.14,169.78A53.7,53.7,0,0,0,307.39,152H227.88a53.7,53.7,0,0,0-10.75,17.78l11,54.76a53.73,53.73,0,0,0,90-54.76Z" style="fill: rgb(250, 250, 250); opacity: 0.1; transform-origin: 269.241px 196.919px;" class="animable" id="el3o8w6g15d36"></path></g><path d="M321.31,190.61a53.55,53.55,0,0,1-14.16,33.93h-79a53.81,53.81,0,0,1-11-54.76h101A53.42,53.42,0,0,1,321.31,190.61Z" style="fill: #B2E11F; transform-origin: 267.653px 197.16px;" id="elwd9f0chl7ui" class="animable"></path><g id="elx8zmo0kj54e"><path d="M321.31,190.61a53.55,53.55,0,0,1-14.16,33.93h-79a53.81,53.81,0,0,1-11-54.76h101A53.42,53.42,0,0,1,321.31,190.61Z" style="fill: rgb(250, 250, 250); opacity: 0.9; transform-origin: 267.653px 197.16px;" class="animable" id="elgq84mel7mfp"></path></g><g id="el9kcx7xqz546"><path d="M321.31,190.61a53.61,53.61,0,1,1-3.17-20.83A53.55,53.55,0,0,1,321.31,190.61Z" style="fill: rgb(255, 255, 255); opacity: 0.3; transform-origin: 267.759px 188.103px;" class="animable" id="el36couj0747y"></path></g><g id="elf3shtt1i4qf"><path d="M297.92,143.76l-77.26,70.46q-.58-1.07-1.14-2.16a53,53,0,0,1-4.87-15h0l66.73-60.86A53.42,53.42,0,0,1,297.92,143.76Z" style="fill: rgb(255, 255, 255); opacity: 0.4; transform-origin: 256.285px 175.21px;" class="animable" id="elj2h9fefot3a"></path></g><g id="el2xye4h949wj"><path d="M318.59,171.07,246,237.31a53.68,53.68,0,0,1-19.48-14.64l79.32-72.34A53.75,53.75,0,0,1,318.59,171.07Z" style="fill: rgb(255, 255, 255); opacity: 0.4; transform-origin: 272.555px 193.82px;" class="animable" id="eld9oz0qg3o4e"></path></g><path d="M321.29,157.15a62,62,0,1,0-22.66,84.64A62,62,0,0,0,321.29,157.15Zm-96,55.44a48.89,48.89,0,1,1,66.79,17.89A48.88,48.88,0,0,1,225.3,212.59Z" style="fill: #B2E11F; transform-origin: 267.582px 188.124px;" id="ell3gnb628v5d" class="animable"></path><g id="elh93k9sh6oyp"><path d="M321.29,157.15a62,62,0,1,0-22.66,84.64A62,62,0,0,0,321.29,157.15Zm-96,55.44a48.89,48.89,0,1,1,66.79,17.89A48.88,48.88,0,0,1,225.3,212.59Z" style="opacity: 0.1; transform-origin: 267.582px 188.124px;" class="animable" id="el4lymzi3vagh"></path></g><path d="M125.06,251.89l7.66,1.78-6.35,4.74s-4.55-2.06-4.76-5.29Z" style="fill: rgb(228, 137, 123); transform-origin: 127.165px 255.15px;" id="el15gtlbvjmxxh" class="animable"></path><polygon points="136.82 258.77 131.3 262.45 126.37 258.41 132.72 253.68 136.82 258.77" style="fill: rgb(228, 137, 123); transform-origin: 131.595px 258.065px;" id="elj1fw4dc65wd" class="animable"></polygon><path d="M223.47,220.78c-8.14,6-16.49,11.7-24.88,17.27s-16.89,11-25.43,16.33S156,264.93,147.35,270c-4.32,2.58-8.68,5.08-13,7.62a25.32,25.32,0,0,1-6.94,3.07,21.75,21.75,0,0,1-4,.67,17,17,0,0,1-4.49-.23,8.2,8.2,0,0,1-6.45-9.65,7,7,0,0,1,.28-1,16.56,16.56,0,0,1,2-4,21.22,21.22,0,0,1,2.56-3.1,25.52,25.52,0,0,1,6.13-4.48c4.37-2.49,8.71-5,13.11-7.47,8.76-4.95,17.6-9.77,26.46-14.53s17.83-9.37,26.85-13.87,18.11-8.88,27.39-12.92a6.21,6.21,0,0,1,6.18,10.69Z" style="fill: #B2E11F; transform-origin: 169.141px 245.498px;" id="elngf457wtehb" class="animable"></path><g id="el5exqjtsgi8x"><path d="M223.47,220.78c-8.14,6-16.49,11.7-24.88,17.27s-16.89,11-25.43,16.33S156,264.93,147.35,270c-4.32,2.58-8.68,5.08-13,7.62a25.32,25.32,0,0,1-6.94,3.07,21.75,21.75,0,0,1-4,.67,17,17,0,0,1-4.49-.23,8.2,8.2,0,0,1-6.45-9.65,7,7,0,0,1,.28-1,16.56,16.56,0,0,1,2-4,21.22,21.22,0,0,1,2.56-3.1,25.52,25.52,0,0,1,6.13-4.48c4.37-2.49,8.71-5,13.11-7.47,8.76-4.95,17.6-9.77,26.46-14.53s17.83-9.37,26.85-13.87,18.11-8.88,27.39-12.92a6.21,6.21,0,0,1,6.18,10.69Z" style="opacity: 0.1; transform-origin: 169.141px 245.498px;" class="animable" id="elbx4pazy7tto"></path></g><path d="M136.16,204.52c-.5.81-1.07,1.79-1.61,2.71s-1.07,1.88-1.57,2.85c-1,1.91-2,3.85-3,5.82s-1.81,4-2.63,6c-.4,1-.82,2-1.19,3l-.56,1.53c-.11.29-.13.41-.2.62s-.1.41-.16.61a31.13,31.13,0,0,0-.59,6c-.05,2.15,0,4.34.12,6.55s.24,4.43.44,6.65.4,4.48.61,6.68l-3.86.79c-.68-2.23-1.21-4.45-1.74-6.7s-.93-4.51-1.32-6.81-.65-4.61-.82-7a34.78,34.78,0,0,1,.19-7.51c.06-.35.11-.68.2-1s.18-.77.26-1l.49-1.7c.32-1.13.69-2.25,1.07-3.36.77-2.23,1.61-4.42,2.55-6.58s1.94-4.27,3-6.35c.55-1,1.13-2.07,1.72-3.1s1.18-2,1.92-3.09Z" style="fill: rgb(228, 137, 123); transform-origin: 127.06px 227.23px;" id="eloblbb9ab95g" class="animable"></path><path d="M131.89,411a9.4,9.4,0,0,1-2-.28.17.17,0,0,1-.14-.14.19.19,0,0,1,.08-.19c.27-.18,2.63-1.7,3.54-1.29a.62.62,0,0,1,.36.52,1,1,0,0,1-.3,1A2.26,2.26,0,0,1,131.89,411Zm-1.53-.54c1.36.27,2.38.22,2.77-.14a.68.68,0,0,0,.19-.65.27.27,0,0,0-.16-.24C132.69,409.22,131.32,409.88,130.36,410.46Z" style="fill: #B2E11F; transform-origin: 131.755px 410.023px;" id="elxqghvy520wm" class="animable"></path><path d="M129.88,410.73a.16.16,0,0,1-.09,0,.17.17,0,0,1-.09-.16c0-.09,0-2.33.85-3.08a1,1,0,0,1,.78-.25.64.64,0,0,1,.62.52c.18.87-1.24,2.55-2,3A.16.16,0,0,1,129.88,410.73Zm1.33-3.16a.62.62,0,0,0-.41.16,4.18,4.18,0,0,0-.72,2.46c.74-.6,1.62-1.86,1.51-2.39,0-.09-.07-.19-.3-.22Z" style="fill: #B2E11F; transform-origin: 130.833px 408.997px;" id="elmd7ukybt64" class="animable"></path><path d="M167.31,411a12.52,12.52,0,0,1-2.45-.28.17.17,0,0,1-.15-.15.19.19,0,0,1,.1-.19c.35-.18,3.45-1.76,4.4-1.24a.59.59,0,0,1,.32.49,1,1,0,0,1-.34.89A2.9,2.9,0,0,1,167.31,411Zm-1.84-.54c1.73.29,3,.21,3.48-.21a.68.68,0,0,0,.21-.59.23.23,0,0,0-.12-.2C168.52,409.18,166.74,409.85,165.47,410.46Z" style="fill: #B2E11F; transform-origin: 167.124px 410.024px;" id="elmx5eic85efa" class="animable"></path><path d="M164.89,410.73a.13.13,0,0,1-.1,0,.15.15,0,0,1-.08-.16c0-.09.19-2.19,1.16-3a1.39,1.39,0,0,1,1-.32c.51.05.65.31.69.52.14.88-1.69,2.56-2.62,3Zm1.86-3.16a1,1,0,0,0-.64.24,4.29,4.29,0,0,0-1,2.4c.94-.57,2.19-1.89,2.1-2.42,0,0,0-.18-.36-.21Z" style="fill: #B2E11F; transform-origin: 166.138px 409.008px;" id="elgvqq7iy61dk" class="animable"></path><path d="M148,174.49c.61,4.67,2,14.14-1.38,17,0,0,1,4.76,9.52,5.31,9.42.61,4.8-4.38,4.8-4.38-5.06-1.56-4.68-5.37-3.55-8.89Z" style="fill: rgb(228, 137, 123); transform-origin: 154.346px 185.671px;" id="eloicrgc6eoej" class="animable"></path><path d="M165.47,165a.34.34,0,0,1-.17-.05.36.36,0,0,1-.15-.5,3.65,3.65,0,0,1,2.73-2,.37.37,0,0,1,.07.73h0a3,3,0,0,0-2.15,1.58A.4.4,0,0,1,165.47,165Z" style="fill: rgb(38, 50, 56); transform-origin: 166.669px 163.725px;" id="elblmcjupknc8" class="animable"></path><path d="M168.16,169.1a16.73,16.73,0,0,0,2.6,3.78,2.7,2.7,0,0,1-2.19.63Z" style="fill: rgb(222, 87, 83); transform-origin: 169.46px 171.321px;" id="elr3yf8armlw9" class="animable"></path><path d="M167.5,168.08c.06.63.44,1.1.84,1.06s.7-.57.64-1.2-.44-1.1-.85-1.06S167.44,167.46,167.5,168.08Z" style="fill: rgb(38, 50, 56); transform-origin: 168.24px 168.01px;" id="eltj5ihp9jqm" class="animable"></path><path d="M168,166.93l1.46-.57S168.76,167.6,168,166.93Z" style="fill: rgb(38, 50, 56); transform-origin: 168.73px 166.744px;" id="ellyzlq0oojo" class="animable"></path><polygon points="156.33 410.54 164.12 410.54 164.64 392.52 156.85 392.52 156.33 410.54" style="fill: rgb(228, 137, 123); transform-origin: 160.485px 401.53px;" id="elyiz0fnon28" class="animable"></polygon><polygon points="120.96 410.54 128.75 410.54 131.25 392.52 123.47 392.52 120.96 410.54" style="fill: rgb(228, 137, 123); transform-origin: 126.105px 401.53px;" id="elu5yl4n9dse" class="animable"></polygon><path d="M129.23,409.64h-8.75a.62.62,0,0,0-.62.53l-1,6.92a1.25,1.25,0,0,0,1.24,1.39c3-.05,4.52-.23,8.37-.23,2.36,0,5.82.24,9.09.24s3.44-3.23,2.08-3.52c-6.1-1.31-7.06-3.12-9.12-4.85A2,2,0,0,0,129.23,409.64Z" style="fill: rgb(38, 50, 56); transform-origin: 129.647px 414.065px;" id="el5s9lfqf13av" class="animable"></path><path d="M164.38,409.64h-8.74a.61.61,0,0,0-.62.53l-1,6.92a1.26,1.26,0,0,0,1.25,1.39c3-.05,4.52-.23,8.36-.23,2.37,0,7.26.24,10.53.24s3.44-3.23,2.08-3.52c-6.1-1.31-8.5-3.12-10.56-4.85A2,2,0,0,0,164.38,409.64Z" style="fill: rgb(38, 50, 56); transform-origin: 165.528px 414.065px;" id="el7h0z7awoyzk" class="animable"></path><polygon points="164.63 392.52 164.37 401.81 156.58 401.81 156.85 392.52 164.63 392.52" style="fill: rgb(206, 111, 100); transform-origin: 160.605px 397.165px;" id="eldgsu3m1bzx4" class="animable"></polygon><polygon points="123.46 392.52 131.25 392.52 129.96 401.81 122.17 401.81 123.46 392.52" style="fill: rgb(206, 111, 100); transform-origin: 126.71px 397.165px;" id="elgk9utbte44o" class="animable"></polygon><path d="M139.48,205.72a39.94,39.94,0,0,1-5.11,6.42l-.89-.59L123.62,205S129,193,133.05,192.39c3.87-.62,6.69,3.38,8,7.66C141.55,201.6,140.72,203.7,139.48,205.72Z" style="fill: #B2E11F; transform-origin: 132.409px 202.233px;" id="elhg6iaovikyg" class="animable"></path><g id="ele7xakvpyvk5"><path d="M139.48,205.72a39.94,39.94,0,0,1-5.11,6.42l-.89-.59L123.62,205S129,193,133.05,192.39c3.87-.62,6.69,3.38,8,7.66C141.55,201.6,140.72,203.7,139.48,205.72Z" style="fill: rgb(250, 250, 250); opacity: 0.6; transform-origin: 132.409px 202.233px;" class="animable" id="els9q5l5bnlvo"></path></g><path d="M139.48,205.72a39.94,39.94,0,0,1-5.11,6.42l-.89-.59c.44-3.6,1.84-7.17,3.44-8.3C137.9,203.35,138.77,204.39,139.48,205.72Z" style="fill: #B2E11F; transform-origin: 136.48px 207.695px;" id="elyqnppj9li3f" class="animable"></path><g id="elvlil120ihr"><path d="M139.48,205.72a39.94,39.94,0,0,1-5.11,6.42l-.89-.59c.44-3.6,1.84-7.17,3.44-8.3C137.9,203.35,138.77,204.39,139.48,205.72Z" style="fill: rgb(250, 250, 250); opacity: 0.4; transform-origin: 136.48px 207.695px;" class="animable" id="elbo7m72zje8"></path></g><path d="M173.21,211.71h0c-.47,3-1.08,6.53-1.9,10.72-1,5.36-2.4,11.79-4.17,19.48l-31.55-2c1.36-12.81,1.89-20.73-2.54-47.48a92.82,92.82,0,0,1,13.52-.89,100.56,100.56,0,0,1,14.32.93c6.12,1,13,2.84,13,2.84S175.65,196,173.21,211.71Z" style="fill: #B2E11F; transform-origin: 153.777px 216.724px;" id="elw4vz1o07nx" class="animable"></path><g id="el2x8vusqz3pe"><path d="M173.21,211.71h0c-.47,3-1.08,6.53-1.9,10.72-1,5.36-2.4,11.79-4.17,19.48l-31.55-2c1.36-12.81,1.89-20.73-2.54-47.48a92.82,92.82,0,0,1,13.52-.89,100.56,100.56,0,0,1,14.32.93c6.12,1,13,2.84,13,2.84S175.65,196,173.21,211.71Z" style="fill: rgb(250, 250, 250); opacity: 0.6; transform-origin: 153.777px 216.724px;" class="animable" id="elpgd644nrbj"></path></g><path d="M173.21,211.71h0c-.47,3-1.08,6.53-1.9,10.72A77.48,77.48,0,0,1,167,211h5.86Z" style="fill: #B2E11F; transform-origin: 170.105px 216.715px;" id="elhaorb4p9o87" class="animable"></path><g id="elc8sid1tyuoq"><path d="M173.21,211.71h0c-.47,3-1.08,6.53-1.9,10.72A77.48,77.48,0,0,1,167,211h5.86Z" style="fill: rgb(250, 250, 250); opacity: 0.4; transform-origin: 170.105px 216.715px;" class="animable" id="elplco8cq4uk"></path></g><path d="M146.28,167.92c1.19,7.63,1.54,10.89,5.79,14.46,6.39,5.38,15.5,2.24,16.61-5.6,1-7.05-1.12-18.35-8.93-20.69A10.53,10.53,0,0,0,146.28,167.92Z" style="fill: rgb(228, 137, 123); transform-origin: 157.521px 170.345px;" id="el78n40fzxq47" class="animable"></path><path d="M158.8,241.37s-.5,13.89-1.7,31.41c-1,14.7-2.51,31.94-4.62,45.68l-.06.38C148.63,343.16,131.84,400,131.84,400H121.22s8.75-54.9,10.67-79c4.87-60.87-7.33-67.76,3.7-81.18Z" style="fill: #B2E11F; transform-origin: 140.01px 319.91px;" id="elx4xbg19mtwf" class="animable"></path><g id="el6c2brdqf9ph"><path d="M158.8,241.37s-.5,13.89-1.7,31.41c-1,14.7-2.51,31.94-4.62,45.68l-.06.38C148.63,343.16,131.84,400,131.84,400H121.22s8.75-54.9,10.67-79c4.87-60.87-7.33-67.76,3.7-81.18Z" style="opacity: 0.3; transform-origin: 140.01px 319.91px;" class="animable" id="ellu9ofld1mnr"></path></g><path d="M157.1,272.78c-1,14.7-2.51,31.94-4.62,45.68-3.59-17.85-9.49-43.92-1.57-61C152.8,262.31,155,267.79,157.1,272.78Z" style="fill: #B2E11F; transform-origin: 152.038px 287.96px;" id="el28bb5kppakt" class="animable"></path><g id="elntsdyo0apaa"><path d="M157.1,272.78c-1,14.7-2.51,31.94-4.62,45.68-3.59-17.85-9.49-43.92-1.57-61C152.8,262.31,155,267.79,157.1,272.78Z" style="opacity: 0.4; transform-origin: 152.038px 287.96px;" class="animable" id="el3qkxk8p5car"></path></g><path d="M167.14,241.92s9,53.34,8.46,77.08c-.53,24.7-9.58,81-9.58,81H155.5s1.66-54.87.73-79.12c-1-26.44-12.2-80.47-12.2-80.47Z" style="fill: #B2E11F; transform-origin: 159.827px 320.205px;" id="elg4vuv0q7poe" class="animable"></path><g id="elv5edziqc3q"><path d="M167.14,241.92s9,53.34,8.46,77.08c-.53,24.7-9.58,81-9.58,81H155.5s1.66-54.87.73-79.12c-1-26.44-12.2-80.47-12.2-80.47Z" style="opacity: 0.3; transform-origin: 159.827px 320.205px;" class="animable" id="el9de6qbowukb"></path></g><polygon points="153.7 400.5 167.81 400.5 168.91 395.77 153.2 395.88 153.7 400.5" style="fill: rgb(38, 50, 56); transform-origin: 161.055px 398.135px;" id="eltvr25icgqa9" class="animable"></polygon><polygon points="119.68 400.5 133.79 400.5 134.89 395.77 119.78 395.88 119.68 400.5" style="fill: rgb(38, 50, 56); transform-origin: 127.285px 398.135px;" id="elvwp29k42so" class="animable"></polygon><path d="M135.23,238l-1.6,2.74c-.13.21.12.45.48.47l33.09,2.15c.28,0,.53-.1.56-.28l.47-2.81c0-.19-.21-.37-.52-.39l-32-2.08A.61.61,0,0,0,135.23,238Z" style="fill: rgb(38, 50, 56); transform-origin: 150.913px 240.58px;" id="elghb9pr5ri2c" class="animable"></path><path d="M139.29,241.84l-.85-.06c-.17,0-.3-.11-.28-.21l.64-3.65c0-.1.17-.18.34-.17l.86.05c.17,0,.29.11.28.22l-.64,3.64C139.62,241.77,139.46,241.85,139.29,241.84Z" style="fill: #B2E11F; transform-origin: 139.219px 239.795px;" id="el1qb578sqqt6" class="animable"></path><g id="el54pkvamg92m"><path d="M139.29,241.84l-.85-.06c-.17,0-.3-.11-.28-.21l.64-3.65c0-.1.17-.18.34-.17l.86.05c.17,0,.29.11.28.22l-.64,3.64C139.62,241.77,139.46,241.85,139.29,241.84Z" style="opacity: 0.3; transform-origin: 139.219px 239.795px;" class="animable" id="elrp4h8wu325l"></path></g><path d="M160,243.18l-.85-.05c-.17,0-.3-.11-.28-.22l.64-3.64c0-.11.17-.18.35-.17l.85.05c.17,0,.3.11.28.22l-.64,3.64C160.36,243.12,160.2,243.19,160,243.18Z" style="fill: #B2E11F; transform-origin: 159.93px 241.14px;" id="elkebtqeo6ng" class="animable"></path><g id="el3d87bumwb2a"><path d="M160,243.18l-.85-.05c-.17,0-.3-.11-.28-.22l.64-3.64c0-.11.17-.18.35-.17l.85.05c.17,0,.3.11.28.22l-.64,3.64C160.36,243.12,160.2,243.19,160,243.18Z" style="opacity: 0.3; transform-origin: 159.93px 241.14px;" class="animable" id="el1zn815tem8u"></path></g><path d="M175.68,203.31c1.2,4,2.34,8.05,3.45,12.09l3.35,12.09.42,1.5.11.37.05.19,0,.1a3.56,3.56,0,0,0,.13.39,6.41,6.41,0,0,0,1,1.68,16.69,16.69,0,0,0,4.1,3.16,52.87,52.87,0,0,0,11,4.44l-.58,3.9a41.59,41.59,0,0,1-13.08-2.83,20.73,20.73,0,0,1-6.29-3.88,12.46,12.46,0,0,1-2.6-3.42,9.36,9.36,0,0,1-.47-1.07l-.11-.27-.07-.19-.13-.37-.53-1.51c-1.4-4-2.7-8-3.93-12.06s-2.44-8.06-3.54-12.14Z" style="fill: rgb(228, 137, 123); transform-origin: 183.625px 223.265px;" id="el61yvchhqifm" class="animable"></path><path d="M173.89,195.27c4,1.31,8.2,14.39,8.2,14.39l-14.44,6.22s-6-14.68-3.34-18S169.3,193.77,173.89,195.27Z" style="fill: #B2E11F; transform-origin: 172.86px 205.211px;" id="el877awthpdy7" class="animable"></path><g id="elepx1ow20pa"><path d="M173.89,195.27c4,1.31,8.2,14.39,8.2,14.39l-14.44,6.22s-6-14.68-3.34-18S169.3,193.77,173.89,195.27Z" style="fill: rgb(250, 250, 250); opacity: 0.6; transform-origin: 172.86px 205.211px;" class="animable" id="el45i8b0kvjkm"></path></g><path d="M166.17,155.65c-2.55-3.15-22.25-5.4-23.3,3.18-7,4.9-.36,17.56.64,20.78-4.83,1.34-20.39,6.66-9,17s28.47,8.58,31.81-2.12c2.34-7.48-5.09-20-4.93-24.38S170.54,161,166.17,155.65Z" style="fill: rgb(38, 50, 56); transform-origin: 148.898px 178.171px;" id="elvmjw6z4irjs" class="animable"></path><path d="M144.89,181.19a.23.23,0,0,1-.19-.09c-1.81-2.2-8.11-13.76-5.9-19.26a4.79,4.79,0,0,1,4.23-3,.24.24,0,0,1,.27.22.25.25,0,0,1-.21.28,4.32,4.32,0,0,0-3.83,2.66c-2.13,5.32,4.05,16.61,5.82,18.77a.24.24,0,0,1-.19.4Z" style="fill: rgb(38, 50, 56); transform-origin: 141.739px 170.014px;" id="elkezfyu0xxs" class="animable"></path><path d="M159.83,169.64a6.64,6.64,0,0,0,2,3.82c1.42,1.36,2.76.43,2.89-1.3.12-1.55-.48-4.12-2.16-4.84S159.62,167.91,159.83,169.64Z" style="fill: rgb(228, 137, 123); transform-origin: 162.271px 170.615px;" id="elrzcz13d8ck" class="animable"></path><path d="M194.39,238.24l5.68-1.93-.89,6.83s-2.24,1-5.14-1.52l-2.77-1.77,2.18-1.19A5.28,5.28,0,0,1,194.39,238.24Z" style="fill: rgb(228, 137, 123); transform-origin: 195.67px 239.823px;" id="elnulpud45wie" class="animable"></path><polygon points="204.04 236.29 202.3 242.26 199.18 243.13 200.07 236.31 204.04 236.29" style="fill: rgb(228, 137, 123); transform-origin: 201.61px 239.71px;" id="elcewoi15el9" class="animable"></polygon></g><defs>     <filter id="active" height="200%">         <feMorphology in="SourceAlpha" result="DILATED" operator="dilate" radius="2"></feMorphology>                <feFlood flood-color="#32DFEC" flood-opacity="1" result="PINK"></feFlood>        <feComposite in="PINK" in2="DILATED" operator="in" result="OUTLINE"></feComposite>        <feMerge>            <feMergeNode in="OUTLINE"></feMergeNode>            <feMergeNode in="SourceGraphic"></feMergeNode>        </feMerge>    </filter>    <filter id="hover" height="200%">        <feMorphology in="SourceAlpha" result="DILATED" operator="dilate" radius="2"></feMorphology>                <feFlood flood-color="#ff0000" flood-opacity="0.5" result="PINK"></feFlood>        <feComposite in="PINK" in2="DILATED" operator="in" result="OUTLINE"></feComposite>        <feMerge>            <feMergeNode in="OUTLINE"></feMergeNode>            <feMergeNode in="SourceGraphic"></feMergeNode>        </feMerge>            <feColorMatrix type="matrix" values="0   0   0   0   0                0   1   0   0   0                0   0   0   0   0                0   0   0   1   0 "></feColorMatrix>    </filter></defs></svg>